PathFileType	4	(X/Y/Z)	/Users/itak/Documents/Research/Walk-IL/dataset/trc/00424_00167.trc
DataRate	CameraRate	NumFrames	NumMarkers	Units	OrigDataRate	OrigDataStartFrame	OrigNumFrames
100.000000	100.000000	4	55	mm	100.000000	556	636
Frame#	Time	RPSI			LPSI			L3			STRN			T10			C7			CLAV			RBAK			LBAK			LSHO			LUPA			LAEL			LAOL			LWTS			LWPS			LFRA			LIFD			LHPS			LHTS			RSHO			RUPA			RAEL			RAOL			RWTS			RWPS			RFRA			RIFD			RHTS			RHPS			RBHD			LFHD			RFHD			LBHD			LHIP			RHIP			RASI			LASI			LKNE			LTHI			LANK			LTIP			LTOE			LMT1			LMT5			LHEE			RKNE			RTHI			RANK			RTIP			RTOE			RMT1			RMT5			RHEE			*53			*54			
		X1	Y1	Z1	X2	Y2	Z2	X3	Y3	Z3	X4	Y4	Z4	X5	Y5	Z5	X6	Y6	Z6	X7	Y7	Z7	X8	Y8	Z8	X9	Y9	Z9	X10	Y10	Z10	X11	Y11	Z11	X12	Y12	Z12	X13	Y13	Z13	X14	Y14	Z14	X15	Y15	Z15	X16	Y16	Z16	X17	Y17	Z17	X18	Y18	Z18	X19	Y19	Z19	X20	Y20	Z20	X21	Y21	Z21	X22	Y22	Z22	X23	Y23	Z23	X24	Y24	Z24	X25	Y25	Z25	X26	Y26	Z26	X27	Y27	Z27	X28	Y28	Z28	X29	Y29	Z29	X30	Y30	Z30	X31	Y31	Z31	X32	Y32	Z32	X33	Y33	Z33	X34	Y34	Z34	X35	Y35	Z35	X36	Y36	Z36	X37	Y37	Z37	X38	Y38	Z38	X39	Y39	Z39	X40	Y40	Z40	X41	Y41	Z41	X42	Y42	Z42	X43	Y43	Z43	X44	Y44	Z44	X45	Y45	Z45	X46	Y46	Z46	X47	Y47	Z47	X48	Y48	Z48	X49	Y49	Z49	X50	Y50	Z50	X51	Y51	Z51	X52	Y52	Z52	X53	Y53	Z53	X54	Y54	Z54	X55	Y55	Z55	

557	5.56	703.4896850585938	936.8712768554688	768.653076171875	803.3601684570312	928.8834838867188	668.424072265625	749.6394653320312	1020.152099609375	736.6654663085938	959.6129760742188	1209.039672851562	901.860107421875	737.4273071289062	1143.343994140625	715.1800537109375	785.5225830078125	1411.680419921875	764.150146484375	936.41552734375	1322.418579101562	870.7973022460938	674.449462890625	1294.90966796875	799.8206787109375	827.6224975585938	1360.431274414062	666.501708984375	960.3167724609375	1375.678344726562	672.3673706054688	1014.225708007812	1249.946411132812	594.2786865234375	1026.994140625	1031.390258789062	582.522705078125	924.02197265625	1032.266723632812	574.0967407226562	1017.751586914062	812.4788208007812	639.4901733398438	1023.017944335938	808.9568481445312	565.8656005859375	1034.368530273438	941.200439453125	579.501220703125	982.6174926757812	646.0220947265625	601.2777099609375	1006.704956054688	729.880859375	556.1065673828125	1012.317138671875	720.996337890625	626.3800659179688	737.8416748046875	1379.568969726562	937.452880859375	675.074462890625	1317.037231445312	985.9089965820312	624.942138671875	1032.553588867188	1026.487060546875	603.2047729492188	1021.570129394531	962.94091796875	701.649169921875	818.1072387695312	1039.583618164062	614.72265625	816.2822875976562	1042.182983398438	614.9933471679688	974.35498046875	1033.355346679688	668.9830322265625	661.7532348632812	1041.328491210938	688.3607177734375	718.45654296875	1055.055419921875	613.6028442382812	728.0740966796875	1046.631958007812	792.738037109375	1606.9208984375	870.8953857421875	994.3742065429688	1624.01416015625	827.2779541015625	915.0452880859375	1630.36328125	930.8164672851562	887.1043701171875	1602.26123046875	720.5628051757812	985.4337158203125	827.863037109375	685.1124877929688	669.5800170898438	826.7595825195312	940.5629272460938	791.5952758789062	855.4512939453125	976.3707885742188	990.0150756835938	863.8797607421875	810.7169799804688	1043.594970703125	415.2874755859375	776.289794921875	1042.589233398438	565.6751098632812	749.3248291015625	1090.387451171875	22.78891944885254	834.6289672851562	1084.7978515625	273.5045776367188	804.2359008789062	1207.092651367188	54.74816131591797	1038.782592773438	1131.800415039062	55.32919692993164	1006.415222167969	1204.87158203125	36.52149200439453	928.4107055664062	1017.7578125	26.0922737121582	835.1740112304688	617.0071411132812	450.5248107910156	866.521240234375	672.83740234375	688.2213134765625	954.1066284179688	389.9771118164062	129.4665832519531	674.8693237304688	541.457275390625	329.5771789550781	818.3613891601562	561.1885986328125	41.14723968505859	704.6163330078125	537.8890991210938	57.80319595336914	659.76171875	465.0363159179688	48.65522003173828	739.0853271484375	373.8795471191406	175.5800476074219	608.5714111328125	nan	nan	nan	nan	nan	nan	
558	5.57	711.054443359375	938.8844604492188	772.5934448242188	810.4952392578125	931.2848510742188	671.922607421875	756.94091796875	1022.462829589844	740.1454467773438	967.4464721679688	1211.217407226562	904.621826171875	744.7213745117188	1145.612670898438	718.6268920898438	793.2750244140625	1413.770629882812	767.0301513671875	944.287841796875	1324.663208007812	873.7098388671875	682.2550048828125	1297.369995117188	803.5687255859375	835.586181640625	1362.352172851562	669.3797607421875	968.1577758789062	1377.799682617188	675.6690673828125	1024.258056640625	1252.357177734375	599.0531616210938	1040.521118164062	1033.720825195312	589.7760620117188	937.7849731445312	1032.934814453125	578.9721069335938	1033.728149414062	815.6591186523438	649.7432861328125	1040.478637695312	811.08984375	576.3038940429688	1049.334228515625	943.629638671875	588.1941528320312	1002.773315429688	647.914306640625	613.4755249023438	1026.020751953125	731.5830688476562	567.4864501953125	1030.408447265625	723.9042358398438	637.9750366210938	746.2757568359375	1382.568481445312	940.6057739257812	683.9075927734375	1320.29833984375	989.808349609375	635.2449340820312	1035.314575195312	1030.885131835938	613.5067138671875	1023.713623046875	967.4026489257812	714.802001953125	822.0131225585938	1045.475219726562	627.7764282226562	818.8604736328125	1047.518798828125	625.93310546875	976.9707641601562	1037.85400390625	684.3241577148438	665.2003784179688	1048.199096679688	702.7994995117188	722.192626953125	1061.660766601562	627.9072265625	730.7476196289062	1052.566772460938	801.155029296875	1609.162475585938	873.4059448242188	1002.882934570312	1625.59814453125	829.9560546875	923.4744873046875	1632.169555664062	933.4392700195312	895.6362915039062	1604.225708007812	723.1576538085938	992.470947265625	829.64501953125	687.3583984375	678.2791137695312	828.225830078125	944.4314575195312	800.4482421875	857.2945556640625	979.3742065429688	998.1734008789062	865.9081420898438	812.771484375	1047.020874023438	415.9950561523438	777.4535522460938	1047.57421875	566.5194091796875	750.831298828125	1090.357299804688	22.94927597045898	834.7704467773438	1086.770629882812	273.716064453125	804.9994506835938	1206.176391601562	53.52686309814453	1039.564575195312	1131.161987304688	54.52197265625	1006.826782226562	1204.567993164062	36.66017532348633	928.9232177734375	1017.732543945312	26.05504989624023	835.0521240234375	625.789306640625	451.8394165039062	872.7838134765625	681.272705078125	689.8012084960938	958.2454223632812	395.1322631835938	134.9336547851562	678.3341674804688	548.747314453125	332.1870422363281	824.0069580078125	561.8377685546875	40.77612686157227	705.3607177734375	540.0439453125	58.58285522460938	661.4598999023438	467.0978698730469	49.65506362915039	740.8409423828125	380.8742065429688	182.8431854248047	613.0874633789062	nan	nan	nan	nan	nan	nan	
559	5.58	718.705810546875	940.7752685546875	776.200439453125	817.7766723632812	933.43701171875	675.1807861328125	764.2769775390625	1024.67626953125	743.4306030273438	975.1231689453125	1213.335083007812	907.30029296875	751.9467163085938	1147.805541992188	722.0001220703125	800.7987670898438	1415.799926757812	769.91845703125	951.9829711914062	1326.856689453125	876.5767822265625	689.9189453125	1299.716430664062	807.3764038085938	843.2486572265625	1364.236938476562	672.2627563476562	975.6510009765625	1379.912475585938	678.9036254882812	1033.91552734375	1254.899658203125	603.6843872070312	1053.974243164062	1036.276000976562	596.9661254882812	951.5480346679688	1033.627563476562	583.8853149414062	1049.940063476562	819.217041015625	660.191162109375	1058.1513671875	813.5555419921875	586.9765625	1064.347290039062	946.3368530273438	596.9269409179688	1023.413696289062	650.2056274414062	626.201904296875	1045.66748046875	733.6353759765625	579.2537231445312	1048.882080078125	727.233154296875	649.9192504882812	754.5662841796875	1385.553588867188	943.7593383789062	692.6015625	1323.565063476562	993.738525390625	645.5322265625	1038.075439453125	1035.539672851562	623.58056640625	1025.848999023438	972.1992797851562	728.2672729492188	826.0618286132812	1051.279296875	641.15673828125	821.3848876953125	1053.049194335938	636.9839477539062	979.5975952148438	1042.6904296875	700.2807006835938	668.7530517578125	1054.866821289062	717.7962646484375	726.05029296875	1068.060791015625	642.7374267578125	733.396728515625	1058.613891601562	809.4424438476562	1611.415283203125	875.9065551757812	1011.261474609375	1627.064697265625	832.559814453125	931.815673828125	1633.890014648438	936.0123291015625	903.9893798828125	1606.1552734375	725.7197265625	999.5737915039062	831.1578369140625	689.6234130859375	686.8214721679688	829.8656616210938	948.0972290039062	809.09814453125	859.223876953125	982.3191528320312	1006.238464355469	867.6672973632812	814.8432006835938	1050.40087890625	416.5541687011719	778.6970825195312	1052.475463867188	567.1544189453125	752.3683471679688	1090.287353515625	23.11966896057129	835.0721435546875	1088.67041015625	273.7891235351562	805.8653564453125	1205.307983398438	52.01987838745117	1040.359375	1130.596923828125	53.47336196899414	1007.33056640625	1204.298950195312	36.76795196533203	929.3898315429688	1017.650085449219	26.07612609863281	835.0693359375	634.4881591796875	453.2201538085938	879.1334838867188	689.4336547851562	691.524658203125	962.4400024414062	400.5893249511719	140.3577728271484	682.1658325195312	556.0712890625	334.7958984375	829.799560546875	562.7223510742188	40.21488571166992	706.2657470703125	542.31591796875	59.45588684082031	663.3641967773438	469.3410034179688	50.74997711181641	742.8327026367188	388.0317687988281	189.9724273681641	618.0137329101562	nan	nan	nan	nan	nan	nan	
560	5.59	726.396728515625	942.4860229492188	779.478759765625	825.1629028320312	935.3213500976562	678.203857421875	771.6524658203125	1026.760009765625	746.529296875	982.6564331054688	1215.348754882812	909.905029296875	759.1061401367188	1149.871704101562	725.2689208984375	808.1057739257812	1417.722778320312	772.811279296875	959.5032958984375	1328.947875976562	879.3992919921875	697.442138671875	1301.892333984375	811.2081298828125	850.6182250976562	1366.051635742188	675.1421508789062	982.8228759765625	1381.956298828125	682.0641479492188	1043.170776367188	1257.4814453125	608.1502075195312	1067.321533203125	1038.991943359375	604.0504760742188	965.2784423828125	1034.286987304688	588.8341674804688	1066.33837890625	823.11767578125	670.7976684570312	1075.984252929688	816.316162109375	597.8482055664062	1079.369506835938	949.26708984375	605.65576171875	1044.454956054688	652.894775390625	639.4407348632812	1065.57861328125	736.0153198242188	591.3787841796875	1067.665649414062	730.9634399414062	662.181396484375	762.6980590820312	1388.431884765625	946.903076171875	701.1337280273438	1326.732177734375	997.6643676757812	655.782470703125	1040.755249023438	1040.468872070312	633.392578125	1027.88720703125	977.3551635742188	742.0242919921875	830.1851196289062	1056.98095703125	654.8792724609375	823.8239135742188	1058.839599609375	648.1185302734375	982.1519775390625	1047.87744140625	716.8291015625	672.3524780273438	1061.318481445312	733.3515014648438	729.9880981445312	1074.23779296875	658.0960083007812	735.97900390625	1064.824462890625	817.57861328125	1613.630737304688	878.3970336914062	1019.483093261719	1628.398559570312	835.0845336914062	940.04052734375	1635.506103515625	938.527587890625	912.1422729492188	1608.004516601562	728.24169921875	1006.723571777344	832.4342651367188	691.9312133789062	695.1520385742188	831.6001586914062	951.5421752929688	817.5112915039062	861.1803588867188	985.2198486328125	1014.166870117188	869.1650390625	816.9649658203125	1053.795654296875	416.9842224121094	780.0645141601562	1057.353149414062	567.6289672851562	753.94921875	1090.193725585938	23.31117630004883	835.527099609375	1090.567260742188	273.7485656738281	806.90576171875	1204.475463867188	50.12902069091797	1041.19580078125	1130.111572265625	52.14553833007812	1007.927795410156	1204.0869140625	36.82026290893555	929.844482421875	1017.534973144531	26.17059898376465	835.2214965820312	643.0999755859375	454.623779296875	885.5463256835938	697.2514038085938	693.3157958984375	966.7286376953125	406.323486328125	145.6778717041016	686.3560180664062	563.417236328125	337.3506469726562	835.7166748046875	563.8370361328125	39.45980072021484	707.3080444335938	544.689453125	60.40365219116211	665.4647216796875	471.7402648925781	51.93532943725586	745.0200805664062	395.3067626953125	196.9228515625	623.333740234375	nan	nan	nan	nan	nan	nan	
